<svg xmlns="http://www.w3.org/2000/svg" viewBox="0 0 97.5 97.5">
  <defs>
    <style>
      .cls-1 {
        fill: #a4b1bf;
      }

      .cls-2 {
        fill: #fff;
      }

      .cls-3 {
        fill: #bad1dd;
      }

      .cls-4 {
        fill: #3d5872;
      }

      .cls-5 {
        fill: #e4f4ff;
      }

      .cls-6 {
        fill: #414042;
      }

      .cls-7 {
        fill: #231f20;
      }

      .cls-8 {
        fill: none;
        stroke: #231f20;
        stroke-miterlimit: 10;
        stroke-width: 3px;
      }
    </style>
  </defs>
  <title>face</title>
  <g id="Layer_2" data-name="Layer 2">
    <g id="_1" data-name="1">
      <g id="_7" data-name="7">
        <g>
          <g>
            <polygon class="cls-1" points="56.9 47.6 57 48.3 57.3 54.3 48.8 62.1 45.8 59.3 41 54.9 40.6 47.5 56.9 47.6"/>
            <path class="cls-1" d="M47.5,24.8c1,.2,2.3-1,2.9-1.5a13,13,0,0,1,3.8-2.2,5.5,5.5,0,0,1,3.1-.3,4.6,4.6,0,0,1,2.8,3.5c.6,3.2-1,6.4-.5,9.5.1.5.2,1.5.9,1s.1-.7.4-1,1,.3,1.1.8a10.2,10.2,0,0,1-.8,5.5c-.4,1-1.1,1.3-1.8,2.1s-.5,2.3-.8,3.2a3.7,3.7,0,0,1-.8,1.8C57,48.4,55.6,49,54.6,50a9.4,9.4,0,0,1-2.9,2.7,6.1,6.1,0,0,1-2.8.4h-.3L47.1,24.7Z"/>
            <path class="cls-1" d="M34.1,36.1c0-.5.3-1.4,1-1s.2.8.5,1,.8-.6.8-1.1-.8-3.2-.7-4.9a18,18,0,0,1,.5-4.6,5.5,5.5,0,0,1,2.4-3.2,5,5,0,0,1,3.6-.5,5.8,5.8,0,0,1,2.6,1.8c.7.8,1.1.8,2.3,1.1l1.5,28.5a6.6,6.6,0,0,1-2.5-.3A9,9,0,0,1,43,50.6c-1.1-.9-2.6-1.4-3.5-2.4a5.2,5.2,0,0,1-1-1.8c-.3-.9-.3-2.4-1.1-3.1s-1.4-.9-2-1.8A11.3,11.3,0,0,1,34.1,36.1Z"/>
            <path d="M61.1,32.5a16.3,16.3,0,0,0-.3,3.1H59.5V35a12.3,12.3,0,0,0-.2-1.9c-.3-3.1.8-13-5.4-9.9l-2.6,1.6a8.8,8.8,0,0,1-8.5.1c-1.5-.8-3.8-2.5-5.3-.9s-.6,3.9-.7,5.2a31.3,31.3,0,0,0-.1,5.3c0,.8.2,1.5.2,2.3-2,.7-1.5-1.5-1.9-2.7a18.2,18.2,0,0,1-.9-5.6c-.1-1.9-.8-4-.2-6,1.2-3.7,6.2-5.8,9.7-6.6a24.4,24.4,0,0,1,11.7.5c1.5.5,3.8,1.2,4.9,2.5s1.2,3.6,1.5,5.3A21.2,21.2,0,0,1,61.1,32.5Z"/>
          </g>
          <g>
            <g>
              <g>
                <path class="cls-2" d="M41,53.4,36.9,57c.8,1.5,1.8,3.1,3,4.9a47.1,47.1,0,0,0,4.8,5.5s1.2-4.4,4.1-6.6C44.3,59.3,41,53.4,41,53.4Z"/>
                <path d="M48.8,78.6V60.8s-1.9,4.1-4.2,3l-3.5-8.5L38,56.6l-3.6,1.7-1.1.3-2.9.9-4.2,1.3a18.2,18.2,0,0,0-7.8,4.8l-.5.5a5.5,5.5,0,0,0-1.3,2.5c-.2,1.1-.5,8-.9,10Z"/>
              </g>
              <path d="M82,78.6c-.4-2-.7-8.9-.9-10a4.7,4.7,0,0,0-1.3-2.5h0a20,20,0,0,0-9-5.5l-3.5-1.1-2.9-.9-1.1-.3-3.6-1.7-3.1-1.3-3.5,8.5c-2.2,1.1-4.2-3-4.2-3V78.6Z"/>
            </g>
            <g>
              <path class="cls-3" d="M55.8,78.6l1.8-10.1-7.9-8.6H48.6s-8.3,8.5-8.2,9.2l1.8,9.5Z"/>
              <path class="cls-4" d="M47.5,65.6l-1.7,13h6.4l-1.7-13a1.7,1.7,0,0,1,.2-1.2l1-1.9a.3.3,0,0,0,0-.4l-1.3-1.2a2.2,2.2,0,0,1-.7-.9c-.2-.2-.5-.8-.9-.5a2.4,2.4,0,0,0-.6.8,6,6,0,0,1-.8.8l-1.1,1a.6.6,0,0,0-.1.4l1.1,1.9A1.7,1.7,0,0,1,47.5,65.6Z"/>
              <path class="cls-5" d="M49.2,59.2h-.4l-8-7.6-1.7,5.5,3.4,12,6.2-9.3a.4.4,0,0,1,.6,0l6.2,9.3,3.4-12-1.8-5.5Z"/>
              <g>
                <path class="cls-6" d="M60.3,78.6l6.6-13.1L60,63.7l7.6-2.5a17.2,17.2,0,0,0-3.4-3.1,30.6,30.6,0,0,0-5.9-2.8L54.9,67.9,53,78.6Z"/>
                <path class="cls-7" d="M31,65.5l6.6,13.1h7.3L42.1,64.8l-2.4-9.5a13.6,13.6,0,0,0-5.9,2.6,21.2,21.2,0,0,0-3.4,3.3l7.5,2.5Z"/>
              </g>
            </g>
          </g>
        </g>
      </g>
    </g>
    <g id="Layer_8" data-name="Layer 8">
      <circle class="cls-8" cx="48.8" cy="48.8" r="47.2"/>
    </g>
  </g>
</svg>
